<svg viewBox="0 0 158 165.5" xmlns="http://www.w3.org/2000/svg"><path d="M67.5114 164.4898c-9.452-.446-18.56-3.214-27.32-8.303-12.101-7.028-22.498-17.557-29.565-29.938-3.588-6.288-6.412-13.632-7.94-20.652-.905-4.156-1.271-7.03-1.574-12.347-.672-11.776 1.684-24.377 6.668-35.66 5.172-11.711 14.08-22.795 23.965-29.823l1.45-1.03-.657-1.304c-.362-.716-.624-1.336-.583-1.378.042-.041.965.13 2.053.38 1.892.435 2.011.439 2.789.087.446-.203 1.048-.548 1.337-.767l.526-.398-.607-1.428c-.334-.786-.566-1.47-.517-1.519.05-.05.9.287 1.89.747l1.801.837 1.244-.628 1.243-.627-.402-1.453c-.222-.798-.382-1.473-.355-1.5.026-.026.803.344 1.726.823l1.68.87 1.274-.477c.701-.263 1.31-.537 1.351-.61.042-.074-.09-.64-.295-1.26-.375-1.133-.35-1.49.082-1.17.13.094.9.448 1.712.785 1.573.652 1.417.658 3.5-.117.446-.166.45-.201.134-1.162-.18-.544-.275-1.041-.213-1.104.063-.062.785.225 1.606.638l1.493.752 1.326-.334c.73-.184 1.326-.404 1.326-.489 0-.085-.136-.605-.302-1.156-.376-1.252-.22-1.266 1.48-.136 1.436.954 1.393.944 2.899.622 1.188-.255 1.197-.276.88-1.919-.103-.532-.151-1.004-.108-1.048.044-.044.715.477 1.491 1.159 1.409 1.236 1.414 1.239 2.513 1.109.605-.072 1.145-.175 1.2-.23.054-.054.004-.807-.11-1.673-.114-.867-.187-1.601-.16-1.632.042-.051.769.268 4.583 2.011.624.286 1.205.52 1.29.52.086 0 .102-.847.037-1.883-.065-1.035-.095-1.917-.066-1.96.05-.075.904.441 5.225 3.163l2.166 1.364v4.156l-4.571-.072c-5.184-.081-8.728.171-13.392.953-5.53.927-10.594 2.324-15.699 4.328-2.468.97-8.513 3.866-10.274 4.922-4.683 2.81-8.162 5.271-11.668 8.254-2.28 1.94-6.366 6.07-8.308 8.397-7.951 9.529-13.406 20.973-16.098 33.774-.564 2.682-1.097 6.64-1.066 7.914.02.862.067.74.31-.82 1.936-12.37 7.274-24.994 14.689-34.737 10.47-13.76 26.846-24.036 44.35-27.831 6.262-1.358 14.837-2.072 19.845-1.652l1.882.158v60.779l1.99.147c1.094.081 2.354.245 2.8.363 1.681.447 3.078 2.404 2.917 4.089l-.07.733-2.044-.039c-4.648-.089-8.864 1.193-12.812 3.896-1.768 1.21-2.641 1.472-3.945 1.18-2.657-.596-3.844-3.316-2.537-5.81.416-.794.757-1.08 2.097-1.759.88-.446 1.891-.887 2.246-.982l.646-.17-.006-10.528c-.006-10.139-.024-10.592-.478-12.305-1.944-7.33-7.845-12.568-15.295-13.575-.87-.118-1.716-.162-1.882-.098-.211.081-.302.49-.302 1.36 0 1.396.114 1.506 1.546 1.506 2.431 0 6.24 1.673 8.477 3.724 1.843 1.688 3.13 3.46 3.958 5.448 1.14 2.74 1.308 4.093 1.243 10.066l-.058 5.363-2.608.89c-9.532 3.25-17.354 9.622-22.063 17.97-3.678 6.518-5.34 12.764-5.337 20.053.004 9.406 2.944 17.131 9.191 24.149 6.71 7.536 16.59 12.381 26.948 13.216 7.28.587 14.397-1.585 18.727-5.716 1.308-1.247 1.323-1.25 2.893-.513.236.11 1.592.684 3.011 1.274 1.64.681 2.582 1.188 2.582 1.388 0 .964-4.339 5.516-7.745 8.126-8.258 6.329-19.074 9.76-29.256 9.28zm35.185-22.111c-1.59-.528-2.962-1.033-3.048-1.123-.087-.09.04-1.01.282-2.043.399-1.703.483-1.871.898-1.787.251.05 1.75.26 3.33.465l2.873.372-.141 1.092c-.172 1.333-.94 3.999-1.15 3.99-.084-.004-1.454-.438-3.044-.966zm.503-7.577-1.744-.072-.135-1.752c-.074-.964-.101-1.786-.06-1.828.184-.183 5.755-.964 5.893-.826.086.085.188 1.163.229 2.396l.073 2.242-1.256-.044a585.13 585.13 0 01-3-.116zm-3.637-8.787c-.416-.913-.731-1.678-.7-1.699.031-.021 1.199-.696 2.594-1.5 2.42-1.393 2.552-1.443 2.845-1.058.442.583 1.648 3.513 1.558 3.784-.063.188-3.023 1.35-5.057 1.983-.436.136-.557-.01-1.24-1.51zm-31.603-2.025c-2.431-.436-5.983-2.289-6.112-3.188-.05-.348.285-.895 1.152-1.882.671-.765 1.393-1.484 1.603-1.596.288-.154.77-.006 1.943.596 1.464.75 1.68.8 3.522.8 1.672 0 2.14-.084 3.176-.57 2.394-1.122 3.946-3.355 4.197-6.037.31-3.32-1.784-6.541-4.946-7.61-1.41-.475-3.705-.42-5.14.126-.624.237-1.297.43-1.496.43-.418 0-2.757-3.095-2.757-3.65 0-.617.573-.965 3.522-2.141 1.106-.441 4.39-.523 6.123-.153 4.67.996 8.432 4.615 9.702 9.333l.246.914h1.282c1.078 0 1.282.06 1.282.377 0 .36-.367 3.66-.531 4.786-.043.296-.087.659-.096.807-.012.182-.422.269-1.276.269h-1.258l-.4.914c-1.434 3.284-4.418 5.985-7.768 7.035-1.57.491-4.486.707-5.97.44zm27.439-3.735c-.826-.836-1.1-1.253-.967-1.472.102-.167.903-1.238 1.78-2.378 1.253-1.627 1.668-2.033 1.936-1.888.577.311 3.031 2.82 3.02 3.09-.01.275-3.935 3.657-4.358 3.754-.143.033-.778-.465-1.411-1.106zm-5.778-3.672c-.855-.363-1.558-.756-1.561-.875-.004-.118.347-1.4.78-2.85.58-1.944.876-2.636 1.13-2.637.59-.002 3.711 1.34 3.828 1.646.062.16-.155.8-.482 1.42l-1.32 2.517c-.398.762-.746 1.397-.773 1.412-.026.014-.747-.27-1.602-.633zm-3.666-77.721.057-34.802.536-.935c.562-.983 1.756-1.822 2.942-2.069 1.19-.247 2.35.272 5.935 2.659l3.495 2.326 3.119.134c6.525.28 13.092 1.583 18.77 3.722 1.296.488 1.876.94 1.208.94-.386 0-3.171 1.47-4.522 2.388-4.232 2.874-7.551 7.627-8.934 12.793-.5 1.868-.573 2.553-.578 5.47-.006 2.731.078 3.677.465 5.229.663 2.66 1.635 4.873 3.102 7.067 1.649 2.464 3.05 3.976 5.169 5.572a22.372 22.372 0 0021.596 3.017c3.031-1.17 6.341-3.426 8.438-5.754 1.503-1.669 3.357-4.645 4.128-6.627.393-1.01.78-1.835.86-1.835.153 0 1.557 3.452 2.32 5.7.718 2.119 1.694 6.294 2.061 8.82.518 3.565.86 9.79.553 10.072-.13.12-28.178.356-43.358.366-6.452.004-12.02.1-12.8.222-4.358.674-7.784 4.278-8.132 8.555l-.134 1.652-3.177.06-3.176.06zm9.246 33.34c.229-3.18 2.373-5.52 5.561-6.064.647-.11 13.397-.259 28.517-.332 22.272-.108 27.367-.08 27.454.146.058.153.075 1.277.038 2.499-.059 1.918-.143 2.347-.616 3.154-.3.514-.91 1.16-1.356 1.437l-.808.502-29.447.057-29.447.057zm32.985-22.399c-.07-.22-.11-.898-.088-1.507.021-.61-.008-1.155-.066-1.213-.058-.058-.872-.302-1.81-.544-1.36-.35-1.738-.382-1.876-.161-.095.152-.464.792-.82 1.421l-.647 1.146-.55-.36a58.806 58.806 0 00-1.816-1.103c-.695-.407-1.264-.828-1.264-.935 0-.107.332-.746.738-1.42l.738-1.225-1.315-1.313c-.724-.722-1.385-1.292-1.47-1.266-.084.025-.66.345-1.28.71-.62.366-1.235.622-1.367.57-.131-.052-.695-.878-1.25-1.835l-1.013-1.741 1.396-.78c1.023-.572 1.366-.875 1.287-1.135a43.15 43.15 0 01-.424-1.72c-.173-.751-.373-1.424-.444-1.496-.072-.07-.804-.122-1.628-.113l-1.498.016-.019-.78c-.02-.87-.018-3.271.004-3.52.008-.09.74-.162 1.624-.162 1.584 0 1.612-.01 1.729-.592a29.19 29.19 0 01.451-1.74c.183-.631.27-1.212.194-1.29-.075-.079-.64-.443-1.254-.81-.795-.476-1.103-.789-1.072-1.09.037-.35 1.516-3.101 1.846-3.43.056-.056.67.24 1.365.66.694.419 1.328.762 1.407.762.08 0 .72-.575 1.423-1.278l1.278-1.278-.717-1.25c-.394-.686-.72-1.351-.723-1.476-.01-.342 3.506-2.24 3.758-2.03.118.099.505.72.86 1.38.46.856.739 1.165.968 1.073.178-.071.977-.285 1.775-.476l1.452-.347.02-.977c.011-.538.035-1.268.054-1.623l.034-.645 2.205-.061 2.205-.062v3.379l1.56.382c.857.21 1.67.426 1.804.48.135.053.6-.537 1.032-1.311.433-.775.842-1.409.909-1.409.066 0 .938.494 1.936 1.097 1.735 1.048 1.803 1.117 1.518 1.56-.164.254-.536.898-.827 1.43l-.528.969 1.357 1.315 1.357 1.315.936-.593c1.905-1.208 1.68-1.269 2.905.781.605 1.012 1.1 1.876 1.1 1.92 0 .045-.63.433-1.399.863s-1.398.805-1.398.833c0 .028.137.479.306 1.003.168.524.365 1.312.438 1.75l.132.798 1.66.063 1.659.063v4.302l-1.291.025c-.71.014-1.44.038-1.622.054-.225.02-.444.498-.679 1.48-.19.8-.405 1.598-.477 1.775-.091.229.202.506 1.002.947 1.781.982 1.741.9 1.05 2.143-1.188 2.137-1.427 2.5-1.64 2.496-.119-.003-.782-.33-1.474-.727l-1.258-.722-1.334 1.32-1.335 1.32.463.753c.255.414.62 1.056.81 1.427l.348.674-1.708.993c-.94.546-1.842.993-2.004.993-.162 0-.46-.363-.66-.807-.201-.443-.537-1.032-.746-1.308-.375-.493-.4-.496-1.55-.18-.643.177-1.435.38-1.76.452-.582.128-.592.159-.592 1.74v1.609h-2.137c-1.894 0-2.151-.046-2.264-.4zm4.717-7.391c1.163-.254 3.23-1.107 3.417-1.41.065-.104-.546-.847-1.357-1.652l-1.475-1.463-1.027.35c-1.329.453-2.946.447-4.238-.017l-1.029-.368-1.531 1.531-1.531 1.531 1.269.64c2.381 1.198 4.719 1.465 7.502.858zm7.45-5.804c1.05-2.06 1.478-4.873 1.059-6.961-.253-1.262-1.448-4.182-1.71-4.182-.075 0-.805.674-1.623 1.498-1.361 1.372-1.465 1.54-1.235 1.99.673 1.313.686 3.754.029 5.18-.269.583-.233.645 1.198 2.087.81.817 1.555 1.435 1.655 1.374.1-.061.381-.505.626-.986zm-17.683-.474 1.366-1.378-.35-1.027c-.437-1.283-.449-2.983-.027-4.177.177-.503.322-.983.322-1.067 0-.307-2.863-3.005-3.06-2.883-.274.17-1.01 1.88-1.375 3.197-.46 1.661-.403 4.49.123 6.023.556 1.62 1.116 2.69 1.41 2.69.124 0 .84-.62 1.591-1.378zm8.686-2.142c.968-.41 1.463-1.039 1.595-2.027.306-2.278-2.026-3.814-3.981-2.623-1.77 1.079-1.625 3.816.244 4.629.872.38 1.286.383 2.142.02zm-3.043-9.095c1.203-.394 3.523-.312 4.56.16.571.26.645.218 2.089-1.215.823-.817 1.496-1.55 1.496-1.628 0-.195-1.801-1.03-3.119-1.445-1.507-.474-4.617-.445-6.13.059-1.057.351-2.746 1.103-3 1.335-.089.08 2.788 3.087 2.953 3.087.04 0 .558-.16 1.15-.353z"/></svg>
